<svg width="848" height="560" viewBox="0 0 848 560" fill="none" xmlns="http://www.w3.org/2000/svg">
<g id="Recommendation 10: drug urine screening within last 12 months">
<path d="M40 52C40 45.3726 45.3726 40 52 40H796C802.627 40 808 45.3726 808 52V508C808 514.627 802.627 520 796 520H52C45.3726 520 40 514.627 40 508V52Z" fill="white"/>
<path d="M52 42H796V38H52V42ZM806 52V508H810V52H806ZM796 518H52V522H796V518ZM42 508V52H38V508H42ZM52 518C46.4772 518 42 513.523 42 508H38C38 515.732 44.268 522 52 522V518ZM806 508C806 513.523 801.523 518 796 518V522C803.732 522 810 515.732 810 508H806ZM796 42C801.523 42 806 46.4772 806 52H810C810 44.268 803.732 38 796 38V42ZM52 38C44.268 38 38 44.268 38 52H42C42 46.4771 46.4772 42 52 42V38Z" fill="#E6E6E6"/>
<g id="Summary: Consider the benefits and risks of conducting a Urine Toxicology Screen Details*: Consider the benefits and risks of toxicology testing to assess for prescribed medications as well as other prescribed and non-prescribed controlled substances.">
<path id="Shape" d="M770 136H78C74.6863 136 72 138.686 72 142V274.923C72 277.854 74.0661 280.343 76.9617 280.794C97.6973 284.022 180.182 296 262.668 296C362.755 296 468 265 570.668 265C659.029 265 746.989 276.789 770.129 280.128C773.409 280.602 776 278.314 776 275V142C776 138.686 773.314 136 770 136Z" fill="#FF9E42"/>
<g id="Text">
<text fill="black" fill-opacity="0.8" xml:space="preserve" style="white-space: pre" font-family="Inter" font-size="16" font-weight="500" letter-spacing="-0.011em"><tspan x="88" y="203.818">&#10;</tspan><tspan x="154.619" y="227.818"> Consider the benefits and risks of toxicology testing to assess for prescribed </tspan><tspan x="88" y="251.818">medications as well as other prescribed and non-prescribed controlled substances.</tspan></text>
<text fill="black" fill-opacity="0.8" xml:space="preserve" style="white-space: pre" font-family="Inter" font-size="16" font-weight="bold" letter-spacing="-0.011em"><tspan x="88" y="179.818">Summary:</tspan><tspan x="88" y="227.818">Details*:</tspan></text>
<text fill="black" fill-opacity="0.8" xml:space="preserve" style="white-space: pre" font-family="Inter" font-size="16" font-weight="bold" letter-spacing="-0.011em"><tspan x="166.451" y="179.818"> Consider the benefits and risks of conducting a Urine Toxicology Screen &#10;</tspan></text>
</g>
</g>
<g id="Shape with text">
<ellipse id="Shape_2" cx="194" cy="405.001" rx="15" ry="16" fill="#FFE0C2"/>
</g>
<g id="Document: Ordered toxicology screen">
<rect id="Shape_3" x="273" y="319.001" width="359" height="51.9724" rx="3" fill="#FFE0C2"/>
<g id="Text_2">
<text fill="black" fill-opacity="0.8" xml:space="preserve" style="white-space: pre" font-family="Inter" font-size="16" font-weight="500" letter-spacing="-0.011em"><tspan x="393.588" y="350.819"> Ordered toxicology screen</tspan></text>
<text fill="black" fill-opacity="0.8" xml:space="preserve" style="white-space: pre" font-family="Inter" font-size="16" font-weight="bold" letter-spacing="-0.011em"><tspan x="309.281" y="350.819">Document:</tspan></text>
</g>
</g>
<g id="Document: Risks outweigh benefits">
<rect id="Shape_4" x="273" y="379.123" width="359" height="51.9724" rx="3" fill="#FFE0C2"/>
<g id="Text_3">
<text fill="black" fill-opacity="0.8" xml:space="preserve" style="white-space: pre" font-family="Inter" font-size="16" font-weight="500" letter-spacing="-0.011em"><tspan x="403.365" y="410.941"> Risks outweigh benefits</tspan></text>
<text fill="black" fill-opacity="0.8" xml:space="preserve" style="white-space: pre" font-family="Inter" font-size="16" font-weight="bold" letter-spacing="-0.011em"><tspan x="319.058" y="410.941">Document:</tspan></text>
</g>
</g>
<g id="Snooze: N/A see comment, snooze 3 months">
<rect id="Shape_5" x="273" y="440.028" width="359" height="51.9724" rx="3" fill="#FFE0C2"/>
<g id="Text_4">
<text fill="black" fill-opacity="0.8" xml:space="preserve" style="white-space: pre" font-family="Inter" font-size="16" font-weight="500" letter-spacing="-0.011em"><tspan x="345.583" y="471.847"> N/A see comment, snooze 3 months</tspan></text>
<text fill="black" fill-opacity="0.8" xml:space="preserve" style="white-space: pre" font-family="Inter" font-size="16" font-weight="bold" letter-spacing="-0.011em"><tspan x="283.534" y="471.847">Snooze:</tspan></text>
</g>
</g>
<g id="Connector line">
<path id="Shape_6" d="M215 403.001C213.895 403.001 213 403.897 213 405.001C213 406.106 213.895 407.001 215 407.001V403.001ZM267.914 346.402C268.695 345.62 268.695 344.354 267.914 343.573L255.186 330.845C254.405 330.064 253.139 330.064 252.358 330.845C251.577 331.626 251.577 332.893 252.358 333.674L263.672 344.987L252.358 356.301C251.577 357.082 251.577 358.348 252.358 359.129C253.139 359.91 254.405 359.91 255.186 359.129L267.914 346.402ZM215 407.001H217V403.001H215V407.001ZM243 381.001V368.987H239V381.001H243ZM265 346.987H266.5V342.987H265V346.987ZM243 368.987C243 356.837 252.85 346.987 265 346.987V342.987C250.641 342.987 239 354.628 239 368.987H243ZM217 407.001C231.359 407.001 243 395.361 243 381.001H239C239 393.151 229.15 403.001 217 403.001V407.001Z" fill="#B3B3B3"/>
</g>
<g id="Connector line_2">
<path id="Shape_7" d="M215 403.001C213.895 403.001 213 403.896 213 405.001C213 406.106 213.895 407.001 215 407.001V403.001ZM267.914 406.415C268.695 405.634 268.695 404.368 267.914 403.587L255.186 390.859C254.405 390.078 253.139 390.078 252.358 390.859C251.577 391.64 251.577 392.906 252.358 393.687L263.672 405.001L252.358 416.315C251.577 417.096 251.577 418.362 252.358 419.143C253.139 419.924 254.405 419.924 255.186 419.143L267.914 406.415ZM215 407.001H266.5V403.001H215V407.001Z" fill="#B3B3B3"/>
</g>
<g id="Connector line_3">
<path id="Shape_8" d="M215 403.001C213.895 403.001 213 403.896 213 405.001C213 406.106 213.895 407.001 215 407.001V403.001ZM267.914 467.429C268.695 466.648 268.695 465.381 267.914 464.6L255.186 451.872C254.405 451.091 253.139 451.091 252.358 451.872C251.577 452.653 251.577 453.92 252.358 454.701L263.672 466.015L252.358 477.328C251.577 478.109 251.577 479.376 252.358 480.157C253.139 480.938 254.405 480.938 255.186 480.157L267.914 467.429ZM215 407.001H217V403.001H215V407.001ZM239 429.001V442.015H243V429.001H239ZM265 468.015H266.5V464.015H265V468.015ZM239 442.015C239 456.374 250.641 468.015 265 468.015V464.015C252.85 464.015 243 454.165 243 442.015H239ZM217 407.001C229.15 407.001 239 416.851 239 429.001H243C243 414.642 231.359 403.001 217 403.001V407.001Z" fill="#B3B3B3"/>
</g>
<g id="5">
<circle id="Shape_9" cx="96" cy="96" r="24" fill="#874FFF"/>
<text id="Text_5" fill="white" xml:space="preserve" style="white-space: pre" font-family="Inter" font-size="15" font-weight="bold" letter-spacing="-0.011em"><tspan x="91.0562" y="101.455">3</tspan></text>
</g>
<g id="Connector line_4">
<path id="Shape_10" d="M138 292C138 290.895 137.105 290 136 290C134.895 290 134 290.895 134 292H138ZM173.914 406.415C174.695 405.634 174.695 404.368 173.914 403.587L161.186 390.859C160.405 390.078 159.139 390.078 158.358 390.859C157.577 391.64 157.577 392.906 158.358 393.687L169.672 405.001L158.358 416.315C157.577 417.096 157.577 418.362 158.358 419.143C159.139 419.924 160.405 419.924 161.186 419.143L173.914 406.415ZM134 292V381.001H138V292H134ZM160 407.001H172.5V403.001H160V407.001ZM134 381.001C134 395.36 145.641 407.001 160 407.001V403.001C147.85 403.001 138 393.151 138 381.001H134Z" fill="#B3B3B3"/>
</g>
</g>
<g id="Rectangle">
<rect x="40" y="4" width="343.688" height="30" rx="3" fill="white"/>
<rect x="40.5" y="4.5" width="342.688" height="29" rx="2.5" stroke="black" stroke-opacity="0.2"/>
</g>
<text id="Recommendation 10: drug urine screening within last 12 months_2" fill="black" xml:space="preserve" style="white-space: pre" font-family="Inter" font-size="11" letter-spacing="0em"><tspan x="46" y="21.5">Recommendation 10: drug urine screening within last 12 months</tspan></text>
</svg>
