<svg width="848" height="768" viewBox="0 0 848 768" fill="none" xmlns="http://www.w3.org/2000/svg">
<g id="Recommendation 10: order for subacute or chronic pain?">
<path d="M40 52C40 45.3726 45.3726 40 52 40H796C802.627 40 808 45.3726 808 52V716C808 722.627 802.627 728 796 728H52C45.3726 728 40 722.627 40 716V52Z" fill="white"/>
<path d="M52 42H796V38H52V42ZM806 52V716H810V52H806ZM796 726H52V730H796V726ZM42 716V52H38V716H42ZM52 726C46.4772 726 42 721.523 42 716H38C38 723.732 44.268 730 52 730V726ZM806 716C806 721.523 801.523 726 796 726V730C803.732 730 810 723.732 810 716H806ZM796 42C801.523 42 806 46.4772 806 52H810C810 44.268 803.732 38 796 38V42ZM52 38C44.268 38 38 44.268 38 52H42C42 46.4772 46.4772 42 52 42V38Z" fill="#E6E6E6"/>
<g id="Shape with text">
<path id="Shape" d="M414.157 91.8604C416.521 89.3799 420.479 89.3799 422.843 91.8604L447.343 117.86C449.552 120.178 449.552 123.822 447.343 126.14L422.843 152.14C420.479 154.62 416.521 154.62 414.157 152.14L389.657 126.14C387.448 123.822 387.448 120.178 389.657 117.86L414.157 91.8604Z" fill="#FFC943"/>
</g>
<g id="any answer is yes?">
<path id="Shape_2" d="M414.923 533.598C417.223 531.467 420.777 531.467 423.077 533.598L512.077 615.598C514.641 617.973 514.641 622.027 512.077 624.402L423.077 706.402C420.777 708.533 417.223 708.533 414.923 706.402L325.923 624.402C323.359 622.027 323.359 617.973 325.923 615.598L414.923 533.598Z" fill="#FFC943"/>
<text id="Text" fill="black" fill-opacity="0.8" xml:space="preserve" style="white-space: pre" font-family="Inter" font-size="16" font-weight="500" letter-spacing="-0.011em"><tspan x="374.075" y="613.818">any answer </tspan><tspan x="393.559" y="637.818">is yes?</tspan></text>
</g>
<g id="Return No">
<rect id="Shape_3" x="601" y="594" width="129" height="53" rx="21.2" fill="#3DADFF"/>
<text id="Text_2" fill="white" xml:space="preserve" style="white-space: pre" font-family="Inter" font-size="16" font-weight="500" letter-spacing="-0.011em"><tspan x="627.907" y="626.818">Return No</tspan></text>
</g>
<g id="No">
<path id="Shape_4" d="M520 618.5C518.895 618.5 518 619.395 518 620.5C518 621.605 518.895 622.5 520 622.5V618.5ZM537.75 622.5C538.855 622.5 539.75 621.605 539.75 620.5C539.75 619.395 538.855 618.5 537.75 618.5V622.5ZM576.75 618.5C575.645 618.5 574.75 619.395 574.75 620.5C574.75 621.605 575.645 622.5 576.75 622.5V618.5ZM595.914 621.914C596.695 621.133 596.695 619.867 595.914 619.086L583.186 606.358C582.405 605.577 581.139 605.577 580.358 606.358C579.577 607.139 579.577 608.405 580.358 609.186L591.672 620.5L580.358 631.814C579.577 632.595 579.577 633.861 580.358 634.642C581.139 635.423 582.405 635.423 583.186 634.642L595.914 621.914ZM520 622.5H537.75V618.5H520V622.5ZM576.75 622.5H594.5V618.5H576.75V622.5Z" fill="#B3B3B3"/>
<g id="Text Background">
<text id="Text_3" fill="black" fill-opacity="0.8" xml:space="preserve" style="white-space: pre" font-family="Inter" font-size="16" font-weight="500" letter-spacing="-0.011em"><tspan x="546.541" y="626.318">No</tspan></text>
</g>
</g>
<g id="order for opioid analgesic with an expected supply duration of 28 days or longer">
<rect id="Shape_5" x="76" y="184" width="224" height="160" rx="6" fill="#66D575"/>
<g id="Text_4">
<text fill="black" fill-opacity="0.8" xml:space="preserve" style="white-space: pre" font-family="Inter" font-size="16" font-weight="bold" letter-spacing="-0.011em"><tspan x="193.097" y="233.818"> opioid </tspan><tspan x="120.215" y="257.818">analgesic </tspan><tspan x="229.704" y="257.818"> </tspan><tspan x="131.042" y="305.818">28 days or longer</tspan></text>
<text fill="black" fill-opacity="0.8" xml:space="preserve" style="white-space: pre" font-family="Inter" font-size="16" font-weight="500" letter-spacing="-0.011em"><tspan x="128.088" y="233.818">order for</tspan><tspan x="197.455" y="257.818">with</tspan><tspan x="233.231" y="257.818">an </tspan><tspan x="90.5886" y="281.818">expected supply duration </tspan><tspan x="111.789" y="305.818">of </tspan></text>
</g>
</g>
<g id="Connector line">
<path id="Shape_6" d="M382 124C383.105 124 384 123.105 384 122C384 120.895 383.105 120 382 120V124ZM186.586 178.914C187.367 179.695 188.633 179.695 189.414 178.914L202.142 166.186C202.923 165.405 202.923 164.139 202.142 163.358C201.361 162.577 200.095 162.577 199.314 163.358L188 174.672L176.686 163.358C175.905 162.577 174.639 162.577 173.858 163.358C173.077 164.139 173.077 165.405 173.858 166.186L186.586 178.914ZM382 120H212V124H382V120ZM186 146V177.5H190V146H186ZM212 120C197.641 120 186 131.641 186 146H190C190 133.85 199.85 124 212 124V120Z" fill="#B3B3B3"/>
</g>
<g id="order for opioid analgesic with therapy type of continuous in the past 90 days">
<rect id="Shape_7" x="324" y="184" width="190" height="160" rx="6" fill="#66D575"/>
<g id="Text_5">
<text fill="black" fill-opacity="0.8" xml:space="preserve" style="white-space: pre" font-family="Inter" font-size="16" font-weight="bold" letter-spacing="-0.011em"><tspan x="399.489" y="221.818"> </tspan><tspan x="423.832" y="221.818"> opioid </tspan><tspan x="362.138" y="245.818">analgesic </tspan><tspan x="350.863" y="293.818">continuous </tspan><tspan x="406.572" y="317.818">90 days</tspan></text>
<text fill="black" fill-opacity="0.8" xml:space="preserve" style="white-space: pre" font-family="Inter" font-size="16" font-weight="500" letter-spacing="-0.011em"><tspan x="359.353" y="221.818">order</tspan><tspan x="403.016" y="221.818">for</tspan><tspan x="439.378" y="245.818">with </tspan><tspan x="359.57" y="269.818">therapy type of </tspan><tspan x="441.021" y="293.818">in the </tspan><tspan x="369.702" y="317.818">past </tspan></text>
</g>
</g>
<g id="order for opioid analgesic prescribed for 28 out of the past 90 days including today">
<rect id="Shape_8" x="552" y="184" width="224" height="160" rx="6" fill="#66D575"/>
<g id="Text_6">
<text fill="black" fill-opacity="0.8" xml:space="preserve" style="white-space: pre" font-family="Inter" font-size="16" font-weight="bold" letter-spacing="-0.011em"><tspan x="644.489" y="233.818"> </tspan><tspan x="668.832" y="233.818"> opioid </tspan><tspan x="570.557" y="257.818">analgesic </tspan><tspan x="582.356" y="281.818">28 out of the past 90 </tspan><tspan x="584.414" y="305.818">days</tspan><tspan x="625.269" y="305.818">including today</tspan></text>
<text fill="black" fill-opacity="0.8" xml:space="preserve" style="white-space: pre" font-family="Inter" font-size="16" font-weight="500" letter-spacing="-0.011em"><tspan x="604.353" y="233.818">order</tspan><tspan x="648.016" y="233.818">for</tspan><tspan x="647.797" y="257.818">prescribed for </tspan><tspan x="621.21" y="305.818"> </tspan></text>
</g>
</g>
<g id="an active or pending order for opioid analgesic">
<rect id="Shape_9" x="558" y="463" width="212.801" height="89" rx="6" fill="#66D575"/>
<g id="Text_7">
<text fill="black" fill-opacity="0.8" xml:space="preserve" style="white-space: pre" font-family="Inter" font-size="16" font-weight="bold" letter-spacing="-0.011em"><tspan x="608.794" y="501.818">active</tspan><tspan x="679.191" y="501.818">pending</tspan><tspan x="636.434" y="525.818">opioid analgesic</tspan></text>
<text fill="black" fill-opacity="0.8" xml:space="preserve" style="white-space: pre" font-family="Inter" font-size="16" font-weight="500" letter-spacing="-0.011em"><tspan x="582.358" y="501.818"> an </tspan><tspan x="655.645" y="501.818"> or </tspan><tspan x="742.209" y="501.818"> </tspan><tspan x="567.366" y="525.818">order for </tspan></text>
</g>
</g>
<g id="Connector line_2">
<path id="Shape_10" d="M190 350C190 348.895 189.105 348 188 348C186.895 348 186 348.895 186 350H190ZM361.046 576.848C361.827 577.63 363.094 577.63 363.875 576.848L376.603 564.121C377.384 563.339 377.384 562.073 376.603 561.292C375.822 560.511 374.555 560.511 373.774 561.292L362.46 572.606L351.147 561.292C350.366 560.511 349.099 560.511 348.318 561.292C347.537 562.073 347.537 563.339 348.318 564.121L361.046 576.848ZM186 350V414H190V350H186ZM212 440H338.46V436H212V440ZM360.46 462V575.434H364.46V462H360.46ZM338.46 440C350.611 440 360.46 449.85 360.46 462H364.46C364.46 447.641 352.82 436 338.46 436V440ZM186 414C186 428.359 197.641 440 212 440V436C199.85 436 190 426.15 190 414H186Z" fill="#B3B3B3"/>
</g>
<g id="Connector line_3">
<path id="Shape_11" d="M552 509.5C553.105 509.5 554 508.605 554 507.5C554 506.395 553.105 505.5 552 505.5V509.5ZM462.313 565.965C463.094 566.746 464.361 566.746 465.142 565.965L477.87 553.237C478.651 552.456 478.651 551.19 477.87 550.409C477.089 549.628 475.822 549.628 475.041 550.409L463.727 561.723L452.414 550.409C451.633 549.628 450.366 549.628 449.585 550.409C448.804 551.19 448.804 552.456 449.585 553.237L462.313 565.965ZM552 505.5H487.727V509.5H552V505.5ZM461.727 531.5V564.551H465.727V531.5H461.727ZM487.727 505.5C473.368 505.5 461.727 517.141 461.727 531.5H465.727C465.727 519.35 475.577 509.5 487.727 509.5V505.5Z" fill="#B3B3B3"/>
</g>
<g id="Return Yes">
<rect id="Shape_12" x="108" y="594" width="129" height="53" rx="21.2" fill="#3DADFF"/>
<text id="Text_8" fill="white" xml:space="preserve" style="white-space: pre" font-family="Inter" font-size="16" font-weight="500" letter-spacing="-0.011em"><tspan x="132.05" y="626.818">Return Yes</tspan></text>
</g>
<g id="Yes">
<path id="Shape_13" d="M318 622.5C319.105 622.5 320 621.605 320 620.5C320 619.395 319.105 618.5 318 618.5V622.5ZM303.25 618.5C302.145 618.5 301.25 619.395 301.25 620.5C301.25 621.605 302.145 622.5 303.25 622.5V618.5ZM258.25 622.5C259.355 622.5 260.25 621.605 260.25 620.5C260.25 619.395 259.355 618.5 258.25 618.5V622.5ZM242.086 619.086C241.305 619.867 241.305 621.133 242.086 621.914L254.814 634.642C255.595 635.423 256.861 635.423 257.642 634.642C258.423 633.861 258.423 632.595 257.642 631.814L246.328 620.5L257.642 609.186C258.423 608.405 258.423 607.139 257.642 606.358C256.861 605.577 255.595 605.577 254.814 606.358L242.086 619.086ZM318 618.5H303.25V622.5H318V618.5ZM258.25 618.5H243.5V622.5H258.25V618.5Z" fill="#B3B3B3"/>
<g id="Text Background_2">
<text id="Text_9" fill="black" fill-opacity="0.8" xml:space="preserve" style="white-space: pre" font-family="Inter" font-size="16" font-weight="500" letter-spacing="-0.011em"><tspan x="267.184" y="626.318">Yes</tspan></text>
</g>
</g>
<g id="AND">
<ellipse id="Shape_14" cx="663.5" cy="401" rx="30.5" ry="32" fill="#FFC943"/>
<text id="Text_10" fill="black" fill-opacity="0.8" xml:space="preserve" style="white-space: pre" font-family="Inter" font-size="16" font-weight="500" letter-spacing="-0.011em"><tspan x="646.324" y="406.818">AND</tspan></text>
</g>
<g id="Connector line_4">
<path id="Shape_15" d="M664.4 439V457" stroke="#B3B3B3" stroke-width="4" stroke-linecap="round" stroke-linejoin="bevel"/>
</g>
<g id="Connector line_5">
<path id="Shape_16" d="M663.5 350V363" stroke="#B3B3B3" stroke-width="4" stroke-linecap="round" stroke-linejoin="bevel"/>
</g>
<g id="Connector line_6">
<path id="Shape_17" d="M455 120C453.895 120 453 120.895 453 122C453 123.105 453.895 124 455 124V120ZM662.586 178.914C663.367 179.695 664.633 179.695 665.414 178.914L678.142 166.186C678.923 165.405 678.923 164.139 678.142 163.358C677.361 162.577 676.095 162.577 675.314 163.358L664 174.672L652.686 163.358C651.905 162.577 650.639 162.577 649.858 163.358C649.077 164.139 649.077 165.405 649.858 166.186L662.586 178.914ZM455 124H640V120H455V124ZM662 146V177.5H666V146H662ZM640 124C652.15 124 662 133.85 662 146H666C666 131.641 654.359 120 640 120V124Z" fill="#B3B3B3"/>
</g>
<g id="Connector line_7">
<path id="Shape_18" d="M421 160C421 158.895 420.105 158 419 158C417.895 158 417 158.895 417 160H421ZM417.586 178.914C418.367 179.695 419.633 179.695 420.414 178.914L433.142 166.186C433.923 165.405 433.923 164.139 433.142 163.358C432.361 162.577 431.095 162.577 430.314 163.358L419 174.672L407.686 163.358C406.905 162.577 405.639 162.577 404.858 163.358C404.077 164.139 404.077 165.405 404.858 166.186L417.586 178.914ZM417 160V177.5H421V160H417Z" fill="#B3B3B3"/>
</g>
<g id="10">
<circle id="Shape_19" cx="96" cy="96" r="24" fill="#874FFF"/>
<text id="Text_11" fill="white" xml:space="preserve" style="white-space: pre" font-family="Inter" font-size="15" font-weight="bold" letter-spacing="-0.011em"><tspan x="92.3306" y="101.455">1</tspan></text>
</g>
<g id="Connector line_8">
<path id="Shape_20" d="M421 350C421 348.895 420.105 348 419 348C417.895 348 417 348.895 417 350H421ZM417.586 526.914C418.367 527.695 419.633 527.695 420.414 526.914L433.142 514.186C433.923 513.405 433.923 512.139 433.142 511.358C432.361 510.577 431.095 510.577 430.314 511.358L419 522.672L407.686 511.358C406.905 510.577 405.639 510.577 404.858 511.358C404.077 512.139 404.077 513.405 404.858 514.186L417.586 526.914ZM417 350V525.5H421V350H417Z" fill="#B3B3B3"/>
</g>
</g>
<g id="Rectangle">
<rect x="40" y="4" width="306.062" height="30" rx="3" fill="white"/>
<rect x="40.5" y="4.5" width="305.062" height="29" rx="2.5" stroke="black" stroke-opacity="0.2"/>
</g>
<text id="Recommendation 10: order for subacute or chronic pain?_2" fill="black" xml:space="preserve" style="white-space: pre" font-family="Inter" font-size="11" letter-spacing="0em"><tspan x="46" y="21.5">Recommendation 10: order for subacute or chronic pain?</tspan></text>
</svg>
