<svg width="848" height="704" viewBox="0 0 848 704" fill="none" xmlns="http://www.w3.org/2000/svg">
<g id="Recommendation 10: opioid review useful?">
<path d="M40 52C40 45.3726 45.3726 40 52 40H796C802.627 40 808 45.3726 808 52V652C808 658.627 802.627 664 796 664H52C45.3726 664 40 658.627 40 652V52Z" fill="white"/>
<path d="M52 42H796V38H52V42ZM806 52V652H810V52H806ZM796 662H52V666H796V662ZM42 652V52H38V652H42ZM52 662C46.4772 662 42 657.523 42 652H38C38 659.732 44.268 666 52 666V662ZM806 652C806 657.523 801.523 662 796 662V666C803.732 666 810 659.732 810 652H806ZM796 42C801.523 42 806 46.4772 806 52H810C810 44.268 803.732 38 796 38V42ZM52 38C44.268 38 38 44.268 38 52H42C42 46.4772 46.4772 42 52 42V38Z" fill="#E6E6E6"/>
<g id="Shape with text">
<path id="Shape" d="M369.157 137.86C371.521 135.38 375.479 135.38 377.843 137.86L402.343 163.86C404.552 166.178 404.552 169.822 402.343 172.14L377.843 198.14C375.479 200.62 371.521 200.62 369.157 198.14L344.657 172.14C342.448 169.822 342.448 166.178 344.657 163.86L369.157 137.86Z" fill="#FFC943"/>
</g>
<g id="any answer is yes?">
<path id="Shape_2" d="M370.923 402.598C373.223 400.467 376.777 400.467 379.077 402.598L468.077 484.598C470.641 486.973 470.641 491.027 468.077 493.402L379.077 575.402C376.777 577.533 373.223 577.533 370.923 575.402L281.923 493.402C279.359 491.027 279.359 486.973 281.923 484.598L370.923 402.598Z" fill="#FFC943"/>
<text id="Text" fill="black" fill-opacity="0.8" xml:space="preserve" style="white-space: pre" font-family="Inter" font-size="16" font-weight="500" letter-spacing="-0.011em"><tspan x="330.075" y="482.818">any answer </tspan><tspan x="349.559" y="506.818">is yes?</tspan></text>
</g>
<g id="Return Yes">
<rect id="Shape_3" x="624" y="584" width="129" height="53" rx="21.2" fill="#3DADFF"/>
<text id="Text_2" fill="white" xml:space="preserve" style="white-space: pre" font-family="Inter" font-size="16" font-weight="500" letter-spacing="-0.011em"><tspan x="648.05" y="616.818">Return Yes</tspan></text>
</g>
<g id="age &#60;18?">
<rect id="Shape_4" x="61" y="234" width="107" height="133.063" rx="6" fill="#66D575"/>
<g id="Text_3">
<text fill="black" fill-opacity="0.8" xml:space="preserve" style="white-space: pre" font-family="Inter" font-size="16" font-weight="500" letter-spacing="-0.011em"><tspan x="108.588" y="306.818"> &#60;18?</tspan></text>
<text fill="black" fill-opacity="0.8" xml:space="preserve" style="white-space: pre" font-family="Inter" font-size="16" font-weight="bold" letter-spacing="-0.011em"><tspan x="80.1473" y="306.818">age</tspan></text>
</g>
</g>
<g id="Connector line">
<path id="Shape_5" d="M337 170C338.105 170 339 169.105 339 168C339 166.895 338.105 166 337 166V170ZM113.086 228.914C113.867 229.695 115.133 229.695 115.914 228.914L128.642 216.186C129.423 215.405 129.423 214.139 128.642 213.358C127.861 212.577 126.595 212.577 125.814 213.358L114.5 224.672L103.186 213.358C102.405 212.577 101.139 212.577 100.358 213.358C99.5769 214.139 99.5769 215.405 100.358 216.186L113.086 228.914ZM337 166H138.5V170H337V166ZM112.5 192V227.5H116.5V192H112.5ZM138.5 166C124.141 166 112.5 177.641 112.5 192H116.5C116.5 179.85 126.35 170 138.5 170V166Z" fill="#B3B3B3"/>
</g>
<g id="Return No">
<rect id="Shape_6" x="61" y="584" width="129" height="53" rx="21.2" fill="#3DADFF"/>
<text id="Text_4" fill="white" xml:space="preserve" style="white-space: pre" font-family="Inter" font-size="16" font-weight="500" letter-spacing="-0.011em"><tspan x="87.9071" y="616.818">Return No</tspan></text>
</g>
<g id="evidence of sickle cell disease?">
<rect id="Shape_7" x="190" y="235" width="144" height="133.063" rx="6" fill="#66D575"/>
<g id="Text_5">
<text fill="black" fill-opacity="0.8" xml:space="preserve" style="white-space: pre" font-family="Inter" font-size="16" font-weight="500" letter-spacing="-0.011em"><tspan x="216.148" y="283.818">evidence of </tspan><tspan x="287.634" y="331.818">?</tspan></text>
<text fill="black" fill-opacity="0.8" xml:space="preserve" style="white-space: pre" font-family="Inter" font-size="16" font-weight="bold" letter-spacing="-0.011em"><tspan x="222.445" y="307.818">sickle cell </tspan><tspan x="227.96" y="331.818">disease</tspan></text>
</g>
</g>
<g id="likely terminal or limited life expectancy conditions present?">
<rect id="Shape_8" x="360" y="234" width="212" height="133.063" rx="6" fill="#66D575"/>
<g id="Text_6">
<text fill="black" fill-opacity="0.8" xml:space="preserve" style="white-space: pre" font-family="Inter" font-size="16" font-weight="500" letter-spacing="-0.011em"><tspan x="401.475" y="282.818">likely </tspan><tspan x="506.803" y="282.818"> or </tspan><tspan x="471.722" y="330.818"> present?</tspan></text>
<text fill="black" fill-opacity="0.8" xml:space="preserve" style="white-space: pre" font-family="Inter" font-size="16" font-weight="bold" letter-spacing="-0.011em"><tspan x="443.43" y="282.818">terminal</tspan><tspan x="377.688" y="306.818">limited life expectancy </tspan><tspan x="390.467" y="330.818">conditions</tspan></text>
</g>
</g>
<g id="2 or more malignant cancer encounter diagnosis in the past year">
<rect id="Shape_9" x="596" y="235" width="186" height="133.063" rx="6" fill="#66D575"/>
<g id="Text_7">
<text fill="black" fill-opacity="0.8" xml:space="preserve" style="white-space: pre" font-family="Inter" font-size="16" font-weight="500" letter-spacing="-0.011em"><tspan x="754.819" y="295.818"> </tspan><tspan x="628.041" y="319.818">diagnosis in the </tspan></text>
<text fill="black" fill-opacity="0.8" xml:space="preserve" style="white-space: pre" font-family="Inter" font-size="16" font-weight="bold" letter-spacing="-0.011em"><tspan x="610.93" y="271.818">2 or more malignant </tspan><tspan x="618.947" y="295.818">cancer encounter</tspan><tspan x="653.306" y="343.818">past year</tspan></text>
</g>
</g>
<g id="Connector line_2">
<path id="Shape_10" d="M353.566 189.961C354.67 189.961 355.566 189.066 355.566 187.961C355.566 186.857 354.67 185.961 353.566 185.961V189.961ZM260.586 229.914C261.367 230.695 262.633 230.695 263.414 229.914L276.142 217.186C276.923 216.405 276.923 215.139 276.142 214.358C275.361 213.577 274.095 213.577 273.314 214.358L262 225.672L250.686 214.358C249.905 213.577 248.639 213.577 247.858 214.358C247.077 215.139 247.077 216.405 247.858 217.186L260.586 229.914ZM353.566 185.961H286V189.961H353.566V185.961ZM260 211.961V228.5H264V211.961H260ZM286 185.961C271.641 185.961 260 197.602 260 211.961H264C264 199.811 273.85 189.961 286 189.961V185.961Z" fill="#B3B3B3"/>
</g>
<g id="Connector line_3">
<path id="Shape_11" d="M410 166C408.895 166 408 166.895 408 168C408 169.105 408.895 170 410 170V166ZM687.586 229.914C688.367 230.695 689.633 230.695 690.414 229.914L703.142 217.186C703.923 216.405 703.923 215.139 703.142 214.358C702.361 213.577 701.095 213.577 700.314 214.358L689 225.672L677.686 214.358C676.905 213.577 675.639 213.577 674.858 214.358C674.077 215.139 674.077 216.405 674.858 217.186L687.586 229.914ZM410 170H665V166H410V170ZM687 192V228.5H691V192H687ZM665 170C677.15 170 687 179.85 687 192H691C691 177.641 679.359 166 665 166V170Z" fill="#B3B3B3"/>
</g>
<g id="Connector line_4">
<path id="Shape_12" d="M395.471 183.8C394.366 183.8 393.471 184.696 393.471 185.8C393.471 186.905 394.366 187.8 395.471 187.8V183.8ZM464.586 228.914C465.367 229.695 466.633 229.695 467.414 228.914L480.142 216.186C480.923 215.405 480.923 214.139 480.142 213.358C479.361 212.577 478.095 212.577 477.314 213.358L466 224.672L454.686 213.358C453.905 212.577 452.639 212.577 451.858 213.358C451.077 214.139 451.077 215.405 451.858 216.186L464.586 228.914ZM395.471 187.8H442V183.8H395.471V187.8ZM464 209.8V227.5H468V209.8H464ZM442 187.8C454.15 187.8 464 197.65 464 209.8H468C468 195.441 456.359 183.8 442 183.8V187.8Z" fill="#B3B3B3"/>
</g>
<g id="Connector line_5">
<path id="Shape_13" d="M116.5 373.063C116.5 371.958 115.605 371.063 114.5 371.063C113.395 371.063 112.5 371.958 112.5 373.063H116.5ZM274.914 490.414C275.695 489.633 275.695 488.367 274.914 487.586L262.186 474.858C261.405 474.077 260.139 474.077 259.358 474.858C258.577 475.639 258.577 476.905 259.358 477.686L270.672 489L259.358 500.314C258.577 501.095 258.577 502.361 259.358 503.142C260.139 503.923 261.405 503.923 262.186 503.142L274.914 490.414ZM112.5 373.063V465H116.5V373.063H112.5ZM138.5 491H273.5V487H138.5V491ZM112.5 465C112.5 479.359 124.141 491 138.5 491V487C126.35 487 116.5 477.15 116.5 465H112.5Z" fill="#B3B3B3"/>
</g>
<g id="Connector line_6">
<path id="Shape_14" d="M264 374.063C264 372.958 263.105 372.063 262 372.063C260.895 372.063 260 372.958 260 374.063H264ZM323.256 440.127C324.037 440.908 325.304 440.908 326.085 440.127L338.813 427.399C339.594 426.618 339.594 425.351 338.813 424.57C338.032 423.789 336.765 423.789 335.984 424.57L324.671 435.884L313.357 424.57C312.576 423.789 311.309 423.789 310.528 424.57C309.747 425.351 309.747 426.618 310.528 427.399L323.256 440.127ZM262 374.063H264H262ZM272.469 386.531H300.671V382.531H272.469V386.531ZM322.671 408.531V438.713H326.671V408.531H322.671ZM300.671 386.531C312.821 386.531 322.671 396.381 322.671 408.531H326.671C326.671 394.172 315.03 382.531 300.671 382.531V386.531ZM260 374.063C260 380.949 265.582 386.531 272.469 386.531V382.531C267.791 382.531 264 378.74 264 374.063H260Z" fill="#B3B3B3"/>
</g>
<g id="Connector line_7">
<path id="Shape_15" d="M468 373.063C468 371.958 467.105 371.063 466 371.063C464.895 371.063 464 371.958 464 373.063H468ZM428.285 444.153C429.066 444.934 430.333 444.934 431.114 444.153L443.841 431.425C444.623 430.644 444.623 429.378 443.841 428.597C443.06 427.816 441.794 427.816 441.013 428.597L429.699 439.91L418.386 428.597C417.605 427.816 416.338 427.816 415.557 428.597C414.776 429.378 414.776 430.644 415.557 431.425L428.285 444.153ZM466 373.063H468H466ZM455.031 382.031H447.85V386.031H455.031V382.031ZM427.699 402.182V442.739H431.699V402.182H427.699ZM447.85 382.031C436.721 382.031 427.699 391.053 427.699 402.182H431.699C431.699 393.262 438.93 386.031 447.85 386.031V382.031ZM464 373.063C464 378.016 459.985 382.031 455.031 382.031V386.031C462.194 386.031 468 380.225 468 373.063H464Z" fill="#B3B3B3"/>
</g>
<g id="Connector line_8">
<path id="Shape_16" d="M691 374.063C691 372.958 690.105 372.063 689 372.063C687.895 372.063 687 372.958 687 374.063H691ZM475.086 487.586C474.305 488.367 474.305 489.633 475.086 490.414L487.814 503.142C488.595 503.923 489.861 503.923 490.642 503.142C491.423 502.361 491.423 501.095 490.642 500.314L479.328 489L490.642 477.686C491.423 476.905 491.423 475.639 490.642 474.858C489.861 474.077 488.595 474.077 487.814 474.858L475.086 487.586ZM687 374.063V465H691V374.063H687ZM665 487H476.5V491H665V487ZM687 465C687 477.15 677.15 487 665 487V491C679.359 491 691 479.359 691 465H687Z" fill="#B3B3B3"/>
</g>
<g id="No">
<path id="Shape_17" d="M417.798 547.569C417.798 546.464 416.903 545.569 415.798 545.569C414.694 545.569 413.798 546.464 413.798 547.569H417.798ZM497.149 612.5C498.254 612.5 499.149 611.605 499.149 610.5C499.149 609.395 498.254 608.5 497.149 608.5V612.5ZM536.149 608.5C535.045 608.5 534.149 609.395 534.149 610.5C534.149 611.605 535.045 612.5 536.149 612.5V608.5ZM618.914 611.914C619.695 611.133 619.695 609.867 618.914 609.086L606.186 596.358C605.405 595.577 604.139 595.577 603.358 596.358C602.577 597.139 602.577 598.405 603.358 599.186L614.672 610.5L603.358 621.814C602.577 622.595 602.577 623.861 603.358 624.642C604.139 625.423 605.405 625.423 606.186 624.642L618.914 611.914ZM413.798 547.569V586.5H417.798V547.569H413.798ZM439.798 612.5H497.149V608.5H439.798V612.5ZM536.149 612.5H617.5V608.5H536.149V612.5ZM413.798 586.5C413.798 600.859 425.439 612.5 439.798 612.5V608.5C427.648 608.5 417.798 598.65 417.798 586.5H413.798Z" fill="#B3B3B3"/>
<g id="Text Background">
<text id="Text_8" fill="black" fill-opacity="0.8" xml:space="preserve" style="white-space: pre" font-family="Inter" font-size="16" font-weight="500" letter-spacing="-0.011em"><tspan x="505.94" y="616.318">No</tspan></text>
</g>
</g>
<g id="Yes">
<path id="Shape_18" d="M337.949 549.179C337.949 548.074 337.054 547.179 335.949 547.179C334.844 547.179 333.949 548.074 333.949 549.179H337.949ZM288.724 608.5C287.62 608.5 286.724 609.395 286.724 610.5C286.724 611.605 287.62 612.5 288.724 612.5V608.5ZM243.724 612.5C244.829 612.5 245.724 611.605 245.724 610.5C245.724 609.395 244.829 608.5 243.724 608.5V612.5ZM195.086 609.086C194.305 609.867 194.305 611.133 195.086 611.914L207.814 624.642C208.595 625.423 209.861 625.423 210.642 624.642C211.423 623.861 211.423 622.595 210.642 621.814L199.328 610.5L210.642 599.186C211.423 598.405 211.423 597.139 210.642 596.358C209.861 595.577 208.595 595.577 207.814 596.358L195.086 609.086ZM333.949 549.179V586.5H337.949V549.179H333.949ZM311.949 608.5H288.724V612.5H311.949V608.5ZM243.724 608.5H196.5V612.5H243.724V608.5ZM333.949 586.5C333.949 598.65 324.099 608.5 311.949 608.5V612.5C326.308 612.5 337.949 600.859 337.949 586.5H333.949Z" fill="#B3B3B3"/>
<g id="Text Background_2">
<text id="Text_9" fill="black" fill-opacity="0.8" xml:space="preserve" style="white-space: pre" font-family="Inter" font-size="16" font-weight="500" letter-spacing="-0.011em"><tspan x="252.658" y="616.318">Yes</tspan></text>
</g>
</g>
<g id="9">
<circle id="Shape_19" cx="139" cy="88" r="24" fill="#874FFF"/>
<text id="Text_10" fill="white" xml:space="preserve" style="white-space: pre" font-family="Inter" font-size="15" font-weight="bold" letter-spacing="-0.011em"><tspan x="134.276" y="93.4545">2</tspan></text>
</g>
</g>
<g id="Rectangle">
<rect x="40" y="4" width="233.25" height="30" rx="3" fill="white"/>
<rect x="40.5" y="4.5" width="232.25" height="29" rx="2.5" stroke="black" stroke-opacity="0.2"/>
</g>
<text id="Recommendation 10: opioid review useful?_2" fill="black" xml:space="preserve" style="white-space: pre" font-family="Inter" font-size="11" letter-spacing="0em"><tspan x="46" y="21.5">Recommendation 10: opioid review useful?</tspan></text>
</svg>
