<svg width="848" height="1360" viewBox="0 0 848 1360" fill="none" xmlns="http://www.w3.org/2000/svg">
<g id="Recommendation 10: possible unexpected results in urine screening">
<path d="M40 52C40 45.3726 45.3726 40 52 40H796C802.627 40 808 45.3726 808 52V1308C808 1314.63 802.627 1320 796 1320H52C45.3726 1320 40 1314.63 40 1308V52Z" fill="white"/>
<path d="M52 42H796V38H52V42ZM806 52V1308H810V52H806ZM796 1318H52V1322H796V1318ZM42 1308V52H38V1308H42ZM52 1318C46.4772 1318 42 1313.52 42 1308H38C38 1315.73 44.268 1322 52 1322V1318ZM806 1308C806 1313.52 801.523 1318 796 1318V1322C803.732 1322 810 1315.73 810 1308H806ZM796 42C801.523 42 806 46.4772 806 52H810C810 44.268 803.732 38 796 38V42ZM52 38C44.268 38 38 44.268 38 52H42C42 46.4771 46.4771 42 52 42V38Z" fill="#E6E6E6"/>
<g id="Shape with text">
<path id="Shape" d="M422.157 103.86C424.521 101.38 428.479 101.38 430.843 103.86L455.343 129.86C457.552 132.178 457.552 135.822 455.343 138.14L430.843 164.14C428.479 166.62 424.521 166.62 422.157 164.14L397.657 138.14C395.448 135.822 395.448 132.178 397.657 129.86L422.157 103.86Z" fill="#FFC943"/>
</g>
<g id="Connector line">
<path id="Shape_2" d="M428.5 56.0006C428.5 54.896 427.605 54.0006 426.5 54.0006C425.396 54.0006 424.5 54.896 424.5 56.0006H428.5ZM425.086 96.9143C425.867 97.6954 427.133 97.6954 427.914 96.9143L440.642 84.1864C441.423 83.4053 441.423 82.139 440.642 81.358C439.861 80.5769 438.595 80.5769 437.814 81.358L426.5 92.6717L415.186 81.358C414.405 80.5769 413.139 80.5769 412.358 81.358C411.577 82.139 411.577 83.4053 412.358 84.1864L425.086 96.9143ZM424.5 56.0006V95.5001H428.5V56.0006H424.5Z" fill="#B3B3B3"/>
</g>
<g id="any answer is yes?">
<path id="Shape_3" d="M421.923 539.598C424.223 537.467 427.777 537.467 430.077 539.598L519.077 621.598C521.641 623.973 521.641 628.027 519.077 630.402L430.077 712.402C427.777 714.533 424.223 714.533 421.923 712.402L332.923 630.402C330.359 628.027 330.359 623.973 332.923 621.598L421.923 539.598Z" fill="#FFC943"/>
<text id="Text" fill="black" fill-opacity="0.8" xml:space="preserve" style="white-space: pre" font-family="Inter" font-size="16" font-weight="500" letter-spacing="-0.011em"><tspan x="381.075" y="619.818">any answer </tspan><tspan x="400.559" y="643.818">is yes?</tspan></text>
</g>
<g id="Summary: Patient may have unexpected toxicology test results Details (example)*: Patient may have unexpected toxicology test results in the past year including: Possible unexpected substance found: opiates [Prescence] in urine by screen method on 2024-10-16 Possible unexpected substance found: benzoylecgonine [Prescence] in urine by screen method on 2024-07-15 Possible unexpected negative result found: dextroamphetamine Sulfate 20 MG Oral Tablet prescribed on 2024-10-16">
<path id="Shape_4" d="M769 796H85C81.6863 796 79 798.686 79 802V1094.93C79 1097.86 81.059 1100.35 83.9496 1100.8C104.523 1104.04 186.012 1116 267.501 1116C366.451 1116 470.5 1085 572.001 1085C659.273 1085 746.15 1096.77 769.129 1100.12C772.408 1100.6 775 1098.31 775 1095V802C775 798.686 772.314 796 769 796Z" fill="#FF9E42"/>
<g id="Text_2">
<text fill="black" fill-opacity="0.8" xml:space="preserve" style="white-space: pre" font-family="Inter" font-size="16" font-weight="500" letter-spacing="-0.011em"><tspan x="95" y="871.818">&#10;</tspan><tspan x="243.047" y="895.818"> </tspan></text>
<text fill="black" fill-opacity="0.8" xml:space="preserve" style="white-space: pre" font-family="Inter" font-size="16" font-weight="bold" letter-spacing="-0.011em"><tspan x="95" y="847.818">Summary:</tspan><tspan x="95" y="895.818">Details (example)*:</tspan></text>
<text fill="black" fill-opacity="0.8" xml:space="preserve" style="white-space: pre" font-family="Inter" font-size="16" font-weight="bold" letter-spacing="-0.011em"><tspan x="173.451" y="847.818"> Patient may have unexpected toxicology test results&#10;</tspan></text>
<text fill="black" fill-opacity="0.8" xml:space="preserve" style="white-space: pre" font-family="Inter" font-size="16" font-weight="500" letter-spacing="-0.011em"><tspan x="247.105" y="895.818">Patient may have unexpected toxicology test results in the past year </tspan><tspan x="95" y="919.818">including:&#10;</tspan><tspan x="119" y="943.818">Possible unexpected substance found: &#10;</tspan><tspan x="143" y="967.818">opiates [Prescence] in urine by screen method on 2024-10-16&#10;</tspan><tspan x="119" y="991.818">Possible unexpected substance found: &#10;</tspan><tspan x="143" y="1015.82">benzoylecgonine [Prescence] in urine by screen method on 2024-07-15&#10;</tspan><tspan x="119" y="1039.82">Possible unexpected negative result found: &#10;</tspan><tspan x="143" y="1063.82">dextroamphetamine Sulfate 20 MG Oral Tablet prescribed on 2024-10-16</tspan></text>
</g>
</g>
<g id="Yes">
<path id="Shape_5" d="M428.073 719.975C428.06 718.871 427.153 717.986 426.049 718C424.944 718.013 424.06 718.919 424.073 720.024L428.073 719.975ZM424.247 734.275C424.261 735.379 425.167 736.263 426.271 736.25C427.376 736.237 428.26 735.33 428.247 734.226L424.247 734.275ZM428.747 775.226C428.733 774.121 427.827 773.237 426.723 773.25C425.618 773.264 424.734 774.17 424.747 775.275L428.747 775.226ZM425.524 790.932C426.314 791.703 427.581 791.688 428.352 790.897L440.924 778.015C441.695 777.225 441.68 775.958 440.889 775.187C440.099 774.415 438.833 774.431 438.061 775.221L426.886 786.672L415.435 775.497C414.645 774.726 413.379 774.741 412.607 775.532C411.836 776.322 411.851 777.589 412.642 778.36L425.524 790.932ZM424.073 720.024L424.247 734.275L428.247 734.226L428.073 719.975L424.073 720.024ZM424.747 775.275L424.921 789.525L428.921 789.476L428.747 775.226L424.747 775.275Z" fill="#B3B3B3"/>
<g id="Text Background">
<text id="Text_3" fill="black" fill-opacity="0.8" xml:space="preserve" style="white-space: pre" font-family="Inter" font-size="16" font-weight="500" letter-spacing="-0.011em"><tspan x="412.931" y="760.568">Yes</tspan></text>
</g>
</g>
<g id="Shape with text_2">
<ellipse id="Shape_6" cx="215.5" cy="1210" rx="15.5" ry="16" fill="#FFE0C2"/>
</g>
<g id="Connector line_2">
<path id="Shape_7" d="M170 1128C170 1126.9 169.105 1126 168 1126C166.895 1126 166 1126.9 166 1128H170ZM194.914 1211.41C195.695 1210.63 195.695 1209.37 194.914 1208.59L182.186 1195.86C181.405 1195.08 180.139 1195.08 179.358 1195.86C178.577 1196.64 178.577 1197.91 179.358 1198.69L190.672 1210L179.358 1221.31C178.577 1222.1 178.577 1223.36 179.358 1224.14C180.139 1224.92 181.405 1224.92 182.186 1224.14L194.914 1211.41ZM166 1128V1186H170V1128H166ZM192 1212H193.5V1208H192V1212ZM166 1186C166 1200.36 177.641 1212 192 1212V1208C179.85 1208 170 1198.15 170 1186H166Z" fill="#B3B3B3"/>
</g>
<g id="Document: Ordered toxicology screen">
<rect id="Shape_8" x="319" y="1124" width="361" height="50.0417" rx="3" fill="#FFE0C2"/>
<g id="Text_4">
<text fill="black" fill-opacity="0.8" xml:space="preserve" style="white-space: pre" font-family="Inter" font-size="16" font-weight="500" letter-spacing="-0.011em"><tspan x="440.588" y="1154.82"> Ordered toxicology screen</tspan></text>
<text fill="black" fill-opacity="0.8" xml:space="preserve" style="white-space: pre" font-family="Inter" font-size="16" font-weight="bold" letter-spacing="-0.011em"><tspan x="356.281" y="1154.82">Document:</tspan></text>
</g>
</g>
<g id="Document: Risks outweigh benefits">
<rect id="Shape_9" x="319" y="1185.8" width="361" height="50.0417" rx="3" fill="#FFE0C2"/>
<g id="Text_5">
<text fill="black" fill-opacity="0.8" xml:space="preserve" style="white-space: pre" font-family="Inter" font-size="16" font-weight="500" letter-spacing="-0.011em"><tspan x="450.365" y="1216.62"> Risks outweigh benefits</tspan></text>
<text fill="black" fill-opacity="0.8" xml:space="preserve" style="white-space: pre" font-family="Inter" font-size="16" font-weight="bold" letter-spacing="-0.011em"><tspan x="366.058" y="1216.62">Document:</tspan></text>
</g>
</g>
<g id="Snooze: N/A see comment, snooze 3 months">
<rect id="Shape_10" x="319" y="1246.79" width="361" height="50.0417" rx="3" fill="#FFE0C2"/>
<g id="Text_6">
<text fill="black" fill-opacity="0.8" xml:space="preserve" style="white-space: pre" font-family="Inter" font-size="16" font-weight="500" letter-spacing="-0.011em"><tspan x="392.583" y="1277.6"> N/A see comment, snooze 3 months</tspan></text>
<text fill="black" fill-opacity="0.8" xml:space="preserve" style="white-space: pre" font-family="Inter" font-size="16" font-weight="bold" letter-spacing="-0.011em"><tspan x="330.534" y="1277.6">Snooze:</tspan></text>
</g>
</g>
<g id="Connector line_3">
<path id="Shape_11" d="M237 1208C235.895 1208 235 1208.9 235 1210C235 1211.1 235.895 1212 237 1212V1208ZM313.914 1150.43C314.695 1149.65 314.695 1148.39 313.914 1147.61L301.186 1134.88C300.405 1134.1 299.139 1134.1 298.358 1134.88C297.577 1135.66 297.577 1136.93 298.358 1137.71L309.672 1149.02L298.358 1160.33C297.577 1161.12 297.577 1162.38 298.358 1163.16C299.139 1163.94 300.405 1163.94 301.186 1163.16L313.914 1150.43ZM237 1212H251V1208H237V1212ZM277 1186V1173.02H273V1186H277ZM299 1151.02H312.5V1147.02H299V1151.02ZM277 1173.02C277 1160.87 286.85 1151.02 299 1151.02V1147.02C284.641 1147.02 273 1158.66 273 1173.02H277ZM251 1212C265.359 1212 277 1200.36 277 1186H273C273 1198.15 263.15 1208 251 1208V1212Z" fill="#B3B3B3"/>
</g>
<g id="Connector line_4">
<path id="Shape_12" d="M237 1208C235.895 1208 235 1208.9 235 1210C235 1211.1 235.895 1212 237 1212V1208ZM313.914 1211.41C314.695 1210.63 314.695 1209.37 313.914 1208.59L301.186 1195.86C300.405 1195.08 299.139 1195.08 298.358 1195.86C297.577 1196.64 297.577 1197.91 298.358 1198.69L309.672 1210L298.358 1221.31C297.577 1222.09 297.577 1223.36 298.358 1224.14C299.139 1224.92 300.405 1224.92 301.186 1224.14L313.914 1211.41ZM237 1212H312.5V1208H237V1212Z" fill="#B3B3B3"/>
</g>
<g id="Connector line_5">
<path id="Shape_13" d="M237 1208C235.895 1208 235 1208.9 235 1210C235 1211.1 235.895 1212 237 1212V1208ZM313.914 1273.22C314.695 1272.44 314.695 1271.17 313.914 1270.39L301.186 1257.66C300.405 1256.88 299.139 1256.88 298.358 1257.66C297.577 1258.45 297.577 1259.71 298.358 1260.49L309.672 1271.81L298.358 1283.12C297.577 1283.9 297.577 1285.17 298.358 1285.95C299.139 1286.73 300.405 1286.73 301.186 1285.95L313.914 1273.22ZM237 1212H251V1208H237V1212ZM273 1234V1247.81H277V1234H273ZM299 1273.81H312.5V1269.81H299V1273.81ZM273 1247.81C273 1262.17 284.641 1273.81 299 1273.81V1269.81C286.85 1269.81 277 1259.96 277 1247.81H273ZM251 1212C263.15 1212 273 1221.85 273 1234H277C277 1219.64 265.359 1208 251 1208V1212Z" fill="#B3B3B3"/>
</g>
<g id="No Alert">
<rect id="Shape_14" x="608" y="599" width="129" height="53" rx="21.2" fill="#3DADFF"/>
<text id="Text_7" fill="white" xml:space="preserve" style="white-space: pre" font-family="Inter" font-size="16" font-weight="500" letter-spacing="-0.011em"><tspan x="641.608" y="631.818">No Alert</tspan></text>
</g>
<g id="No">
<path id="Shape_15" d="M527 623.5C525.895 623.5 525 624.395 525 625.5C525 626.605 525.895 627.5 527 627.5V623.5ZM544.75 627.5C545.855 627.5 546.75 626.605 546.75 625.5C546.75 624.395 545.855 623.5 544.75 623.5V627.5ZM583.75 623.5C582.645 623.5 581.75 624.395 581.75 625.5C581.75 626.605 582.645 627.5 583.75 627.5V623.5ZM602.914 626.914C603.695 626.133 603.695 624.867 602.914 624.086L590.186 611.358C589.405 610.577 588.139 610.577 587.358 611.358C586.577 612.139 586.577 613.405 587.358 614.186L598.672 625.5L587.358 636.814C586.577 637.595 586.577 638.861 587.358 639.642C588.139 640.423 589.405 640.423 590.186 639.642L602.914 626.914ZM527 627.5H544.75V623.5H527V627.5ZM583.75 627.5H601.5V623.5H583.75V627.5Z" fill="#B3B3B3"/>
<g id="Text Background_2">
<text id="Text_8" fill="black" fill-opacity="0.8" xml:space="preserve" style="white-space: pre" font-family="Inter" font-size="16" font-weight="500" letter-spacing="-0.011em"><tspan x="553.541" y="631.318">No</tspan></text>
</g>
</g>
<g id="positive result for a substance of potential interest in the past year?">
<rect id="Shape_16" x="312" y="217" width="228" height="111" rx="6" fill="#66D575"/>
<g id="Text_9">
<text fill="black" fill-opacity="0.8" xml:space="preserve" style="white-space: pre" font-family="Inter" font-size="16" font-weight="bold" letter-spacing="-0.011em"><tspan x="351.27" y="254.818">positive</tspan><tspan x="435.966" y="302.818"> past year</tspan></text>
<text fill="black" fill-opacity="0.8" xml:space="preserve" style="white-space: pre" font-family="Inter" font-size="16" font-weight="500" letter-spacing="-0.011em"><tspan x="412.378" y="254.818"> result for a </tspan><tspan x="340.241" y="278.818">substance of potential </tspan><tspan x="332.887" y="302.818">interest in the</tspan><tspan x="510.706" y="302.818">?</tspan></text>
</g>
</g>
<g id="positive result for a prescribable substance in the past year?">
<rect id="Shape_17" x="568" y="217" width="209" height="111" rx="6" fill="#66D575"/>
<g id="Text_10">
<text fill="black" fill-opacity="0.8" xml:space="preserve" style="white-space: pre" font-family="Inter" font-size="16" font-weight="bold" letter-spacing="-0.011em"><tspan x="598.035" y="254.818">positive </tspan><tspan x="655.364" y="302.818">past year?</tspan></text>
<text fill="black" fill-opacity="0.8" xml:space="preserve" style="white-space: pre" font-family="Inter" font-size="16" font-weight="500" letter-spacing="-0.011em"><tspan x="662.67" y="254.818">result for a </tspan><tspan x="582.616" y="278.818">prescribable substance </tspan><tspan x="609.424" y="302.818">in the </tspan></text>
</g>
</g>
<g id="Connector line_6">
<path id="Shape_18" d="M428 334C428 332.895 427.105 332 426 332C424.895 332 424 332.895 424 334H428ZM424.586 532.914C425.367 533.695 426.633 533.695 427.414 532.914L440.142 520.186C440.923 519.405 440.923 518.139 440.142 517.358C439.361 516.577 438.095 516.577 437.314 517.358L426 528.672L414.686 517.358C413.905 516.577 412.639 516.577 411.858 517.358C411.077 518.139 411.077 519.405 411.858 520.186L424.586 532.914ZM424 334V531.5H428V334H424Z" fill="#B3B3B3"/>
</g>
<g id="Connector line_7">
<path id="Shape_19" d="M463 132C461.895 132 461 132.895 461 134C461 135.105 461.895 136 463 136V132ZM671.086 211.914C671.867 212.695 673.133 212.695 673.914 211.914L686.642 199.186C687.423 198.405 687.423 197.139 686.642 196.358C685.861 195.577 684.595 195.577 683.814 196.358L672.5 207.672L661.186 196.358C660.405 195.577 659.139 195.577 658.358 196.358C657.577 197.139 657.577 198.405 658.358 199.186L671.086 211.914ZM463 136H648.5V132H463V136ZM670.5 158V210.5H674.5V158H670.5ZM648.5 136C660.65 136 670.5 145.85 670.5 158H674.5C674.5 143.641 662.859 132 648.5 132V136Z" fill="#B3B3B3"/>
</g>
<g id="Connector line_8">
<path id="Shape_20" d="M428 172C428 170.895 427.105 170 426 170C424.895 170 424 170.895 424 172H428ZM424.586 211.914C425.367 212.695 426.633 212.695 427.414 211.914L440.142 199.186C440.923 198.405 440.923 197.139 440.142 196.358C439.361 195.577 438.095 195.577 437.314 196.358L426 207.672L414.686 196.358C413.905 195.577 412.639 195.577 411.858 196.358C411.077 197.139 411.077 198.405 411.858 199.186L424.586 211.914ZM424 172V210.5H428V172H424Z" fill="#B3B3B3"/>
</g>
<g id="negative result for a prescribable substance in the past year?">
<rect id="Shape_21" x="57" y="217" width="228" height="111" rx="6" fill="#66D575"/>
<g id="Text_11">
<text fill="black" fill-opacity="0.8" xml:space="preserve" style="white-space: pre" font-family="Inter" font-size="16" font-weight="bold" letter-spacing="-0.011em"><tspan x="93.7152" y="254.818">negative </tspan><tspan x="145.534" y="302.818">past year</tspan></text>
<text fill="black" fill-opacity="0.8" xml:space="preserve" style="white-space: pre" font-family="Inter" font-size="16" font-weight="500" letter-spacing="-0.011em"><tspan x="163.991" y="254.818">result for a </tspan><tspan x="72.4891" y="278.818">prescribable substance in </tspan><tspan x="116.847" y="302.818">the </tspan><tspan x="216.747" y="302.818">?</tspan></text>
</g>
</g>
<g id="Connector line_9">
<path id="Shape_22" d="M390 136C391.105 136 392 135.105 392 134C392 132.895 391.105 132 390 132V136ZM169.586 211.914C170.367 212.695 171.633 212.695 172.414 211.914L185.142 199.186C185.923 198.405 185.923 197.139 185.142 196.358C184.361 195.577 183.095 195.577 182.314 196.358L171 207.672L159.686 196.358C158.905 195.577 157.639 195.577 156.858 196.358C156.077 197.139 156.077 198.405 156.858 199.186L169.586 211.914ZM390 132H195V136H390V132ZM169 158V210.5H173V158H169ZM195 132C180.641 132 169 143.641 169 158H173C173 145.85 182.85 136 195 136V132Z" fill="#B3B3B3"/>
</g>
<g id="there is an order for that substance in the 30 days prior to the test">
<rect id="Shape_23" x="57" y="441" width="228" height="111" rx="6" fill="#66D575"/>
<g id="Text_12">
<text fill="black" fill-opacity="0.8" xml:space="preserve" style="white-space: pre" font-family="Inter" font-size="16" font-weight="bold" letter-spacing="-0.011em"><tspan x="133.794" y="478.818"> an orde</tspan><tspan x="156.289" y="502.818">in the 30 days </tspan><tspan x="111.767" y="526.818">prior to the test</tspan></text>
<text fill="black" fill-opacity="0.8" xml:space="preserve" style="white-space: pre" font-family="Inter" font-size="16" font-weight="500" letter-spacing="-0.011em"><tspan x="78.0302" y="478.818">there is</tspan><tspan x="194.714" y="478.818">r for that </tspan><tspan x="74.0339" y="502.818">substance </tspan></text>
</g>
</g>
<g id="Connector line_10">
<path id="Shape_24" d="M291 494.5C289.895 494.5 289 495.395 289 496.5C289 497.605 289.895 498.5 291 498.5V494.5ZM381.456 570.493C382.237 571.274 383.503 571.274 384.285 570.493L397.012 557.765C397.794 556.984 397.794 555.718 397.012 554.937C396.231 554.156 394.965 554.156 394.184 554.937L382.87 566.251L371.557 554.937C370.776 554.156 369.509 554.156 368.728 554.937C367.947 555.718 367.947 556.984 368.728 557.765L381.456 570.493ZM291 498.5H358.87V494.5H291V498.5ZM380.87 520.5V569.079H384.87V520.5H380.87ZM358.87 498.5C371.021 498.5 380.87 508.35 380.87 520.5H384.87C384.87 506.141 373.23 494.5 358.87 494.5V498.5Z" fill="#B3B3B3"/>
</g>
<g id="no order for that substance in the 30 days prior to the test">
<rect id="Shape_25" x="568" y="441" width="209" height="111" rx="6" fill="#66D575"/>
<g id="Text_13">
<text fill="black" fill-opacity="0.8" xml:space="preserve" style="white-space: pre" font-family="Inter" font-size="16" font-weight="bold" letter-spacing="-0.011em"><tspan x="608.707" y="478.818">no order</tspan><tspan x="677.951" y="502.818">in the 30 </tspan><tspan x="593.106" y="526.818">days prior to the test</tspan></text>
<text fill="black" fill-opacity="0.8" xml:space="preserve" style="white-space: pre" font-family="Inter" font-size="16" font-weight="500" letter-spacing="-0.011em"><tspan x="673.002" y="478.818"> for that </tspan><tspan x="595.695" y="502.818">substance </tspan></text>
</g>
</g>
<g id="Connector line_11">
<path id="Shape_26" d="M562 498.5C563.104 498.5 564 497.605 564 496.5C564 495.395 563.104 494.5 562 494.5V498.5ZM471.716 574.179C472.497 574.96 473.763 574.96 474.544 574.179L487.272 561.451C488.053 560.67 488.053 559.404 487.272 558.623C486.491 557.842 485.225 557.842 484.444 558.623L473.13 569.937L461.816 558.623C461.035 557.842 459.769 557.842 458.988 558.623C458.207 559.404 458.207 560.67 458.988 561.451L471.716 574.179ZM562 494.5H497.13V498.5H562V494.5ZM471.13 520.5V572.765H475.13V520.5H471.13ZM497.13 494.5C482.771 494.5 471.13 506.141 471.13 520.5H475.13C475.13 508.35 484.98 498.5 497.13 498.5V494.5Z" fill="#B3B3B3"/>
</g>
<g id="AND">
<ellipse id="Shape_27" cx="672.5" cy="382" rx="30.5" ry="32" fill="#FFC943"/>
<text id="Text_14" fill="black" fill-opacity="0.8" xml:space="preserve" style="white-space: pre" font-family="Inter" font-size="16" font-weight="500" letter-spacing="-0.011em"><tspan x="655.324" y="387.818">AND</tspan></text>
</g>
<g id="AND_2">
<ellipse id="Shape_28" cx="170.5" cy="382" rx="30.5" ry="32" fill="#FFC943"/>
<text id="Text_15" fill="black" fill-opacity="0.8" xml:space="preserve" style="white-space: pre" font-family="Inter" font-size="16" font-weight="500" letter-spacing="-0.011em"><tspan x="153.324" y="387.818">AND</tspan></text>
</g>
<g id="Connector line_12">
<path id="Shape_29" d="M170.5 334V344" stroke="#B3B3B3" stroke-width="4" stroke-linecap="round" stroke-linejoin="bevel"/>
</g>
<g id="Connector line_13">
<path id="Shape_30" d="M171 420V435" stroke="#B3B3B3" stroke-width="4" stroke-linecap="round" stroke-linejoin="bevel"/>
</g>
<g id="Connector line_14">
<path id="Shape_31" d="M672.5 334V344" stroke="#B3B3B3" stroke-width="4" stroke-linecap="round" stroke-linejoin="bevel"/>
</g>
<g id="Connector line_15">
<path id="Shape_32" d="M672.5 420V435" stroke="#B3B3B3" stroke-width="4" stroke-linecap="round" stroke-linejoin="bevel"/>
</g>
<g id="6">
<circle id="Shape_33" cx="103" cy="112" r="24" fill="#874FFF"/>
<text id="Text_16" fill="white" xml:space="preserve" style="white-space: pre" font-family="Inter" font-size="15" font-weight="bold" letter-spacing="-0.011em"><tspan x="97.917" y="117.455">4</tspan></text>
</g>
</g>
<g id="Rectangle">
<rect x="40" y="4" width="364.5" height="30" rx="3" fill="white"/>
<rect x="40.5" y="4.5" width="363.5" height="29" rx="2.5" stroke="black" stroke-opacity="0.2"/>
</g>
<text id="Recommendation 10: possible unexpected results in urine screening_2" fill="black" xml:space="preserve" style="white-space: pre" font-family="Inter" font-size="11" letter-spacing="0em"><tspan x="46" y="21.5">Recommendation 10: possible unexpected results in urine screening</tspan></text>
</svg>
