<svg width="1040" height="816" viewBox="0 0 1040 816" fill="none" xmlns="http://www.w3.org/2000/svg">
<g id="Recommendation 10: High-Level Flow Diagram">
<path d="M40 52C40 45.3726 45.3726 40 52 40H988C994.627 40 1000 45.3726 1000 52V764C1000 770.627 994.627 776 988 776H52C45.3726 776 40 770.627 40 764V52Z" fill="white"/>
<path d="M52 42H988V38H52V42ZM998 52V764H1002V52H998ZM988 774H52V778H988V774ZM42 764V52H38V764H42ZM52 774C46.4771 774 42 769.523 42 764H38C38 771.732 44.268 778 52 778V774ZM998 764C998 769.523 993.523 774 988 774V778C995.732 778 1002 771.732 1002 764H998ZM988 42C993.523 42 998 46.4772 998 52H1002C1002 44.268 995.732 38 988 38V42ZM52 38C44.268 38 38 44.268 38 52H42C42 46.4772 46.4772 42 52 42V38Z" fill="#E6E6E6"/>
<g id="for subacute or chronic pain?">
<a href="recommendation-10.html#sub-flow-1-order-for-subacute-or-chronic-pain" target="_top">
<path id="Shape" d="M488.359 175.888C490.286 174.704 492.714 174.704 494.641 175.888L613.141 246.388C616.953 248.73 616.953 254.27 613.141 256.612L494.641 327.112C492.714 328.296 490.286 328.296 488.359 327.112L369.859 256.612C366.047 254.27 366.047 248.73 369.859 246.388L488.359 175.888Z" fill="#FFC943"/>
<text id="Text" fill="black" fill-opacity="0.8" xml:space="preserve" style="white-space: pre" font-family="Inter" font-size="16" font-weight="500" letter-spacing="-0.011em"><tspan x="432.375" y="245.818">for subacute or </tspan><tspan x="441.572" y="269.818">chronic pain?</tspan></text>
</a>
</g>
<g id="opioid review useful?">
<a href="recommendation-10.html#sub-flow-2-opioid-review-useful" target="_top">
<path id="Shape_2" d="M165.022 399.158C167.131 397.614 169.998 397.614 172.107 399.158L270.672 469.658C273.948 472.055 273.948 476.945 270.672 479.342L172.107 549.842C169.998 551.386 167.131 551.386 165.022 549.842L66.4573 479.342C63.1809 476.945 63.1809 472.055 66.4573 469.658L165.022 399.158Z" fill="#FFC943"/>
<text id="Text_2" fill="black" fill-opacity="0.8" xml:space="preserve" style="white-space: pre" font-family="Inter" font-size="15" font-weight="500" letter-spacing="-0.011em"><tspan x="119.854" y="468.955">opioid review </tspan><tspan x="143.139" y="491.955">useful?</tspan></text>
</a>
</g>
<g id="Yes">
<path id="Shape_3" d="M361 253.5C362.105 253.5 363 252.605 363 251.5C363 250.395 362.105 249.5 361 249.5V253.5ZM287.282 249.5C286.178 249.5 285.282 250.395 285.282 251.5C285.282 252.605 286.178 253.5 287.282 253.5V249.5ZM242.282 253.5C243.387 253.5 244.282 252.605 244.282 251.5C244.282 250.395 243.387 249.5 242.282 249.5V253.5ZM167.15 392.914C167.931 393.695 169.198 393.695 169.979 392.914L182.707 380.186C183.488 379.405 183.488 378.139 182.707 377.358C181.926 376.577 180.659 376.577 179.878 377.358L168.564 388.672L157.251 377.358C156.47 376.577 155.203 376.577 154.422 377.358C153.641 378.139 153.641 379.405 154.422 380.186L167.15 392.914ZM361 249.5H287.282V253.5H361V249.5ZM242.282 249.5H192.564V253.5H242.282V249.5ZM166.564 275.5V391.5H170.564V275.5H166.564ZM192.564 249.5C178.205 249.5 166.564 261.141 166.564 275.5H170.564C170.564 263.35 180.414 253.5 192.564 253.5V249.5Z" fill="#B3B3B3"/>
<g id="Text Background">
<text id="Text_3" fill="black" fill-opacity="0.8" xml:space="preserve" style="white-space: pre" font-family="Inter" font-size="16" font-weight="500" letter-spacing="-0.011em"><tspan x="251.216" y="257.318">Yes</tspan></text>
</g>
</g>
<g id="opioid OR nonopioid drug urine screening in the past year?">
<path id="Shape_4" d="M488.4 374.2C490.533 372.6 493.467 372.6 495.6 374.2L625.6 470.2C628.8 472.6 628.8 477.4 625.6 479.8L495.6 575.8C493.467 577.4 490.533 577.4 488.4 575.8L358.4 479.8C355.2 477.4 355.2 472.6 358.4 470.2L488.4 374.2Z" fill="#66D575"/>
<g id="Text_4">
<text fill="black" fill-opacity="0.8" xml:space="preserve" style="white-space: pre" font-family="Inter" font-size="15" font-weight="500" letter-spacing="-0.011em"><tspan x="507.769" y="468.955"> drug </tspan><tspan x="434.001" y="491.955">urine screening  </tspan><tspan x="433.144" y="514.955">in the </tspan><tspan x="542.975" y="514.955">?</tspan></text>
<text fill="black" fill-opacity="0.8" xml:space="preserve" style="white-space: pre" font-family="Inter" font-size="15" font-weight="bold" letter-spacing="-0.011em"><tspan x="455.872" y="445.955">opioid </tspan><tspan x="524.656" y="445.955"> </tspan><tspan x="435.792" y="468.955">nonopioid</tspan><tspan x="476.213" y="514.955">past year</tspan></text>
<text fill="black" fill-opacity="0.8" xml:space="preserve" style="white-space: pre" font-family="Inter" font-size="15" font-weight="500" letter-spacing="-0.011em"><tspan x="503.79" y="445.955">OR</tspan></text>
</g>
</g>
<g id="Yes_2">
<path id="Shape_5" d="M279.129 473C278.024 473 277.129 473.895 277.129 475C277.129 476.105 278.024 477 279.129 477V473ZM291.815 477C292.919 477 293.815 476.105 293.815 475C293.815 473.895 292.919 473 291.815 473V477ZM336.815 473C335.71 473 334.815 473.895 334.815 475C334.815 476.105 335.71 477 336.815 477V473ZM350.914 476.414C351.695 475.633 351.695 474.367 350.914 473.586L338.186 460.858C337.405 460.077 336.139 460.077 335.358 460.858C334.577 461.639 334.577 462.905 335.358 463.686L346.672 475L335.358 486.314C334.577 487.095 334.577 488.361 335.358 489.142C336.139 489.923 337.405 489.923 338.186 489.142L350.914 476.414ZM279.129 477H291.815V473H279.129V477ZM336.815 477H349.5V473H336.815V477Z" fill="#B3B3B3"/>
<g id="Text Background_2">
<text id="Text_5" fill="black" fill-opacity="0.8" xml:space="preserve" style="white-space: pre" font-family="Inter" font-size="16" font-weight="500" letter-spacing="-0.011em"><tspan x="300.748" y="480.818">Yes</tspan></text>
</g>
</g>
<g id="possible unexpected results* in urine screening?">
<a href="recommendation-10.html#sub-flow-4-possible-unexpected-results-in-urine-screening" target="_top">
<path id="Shape_6" d="M847.698 374.359C849.909 372.547 853.091 372.547 855.302 374.359L973.802 470.359C976.733 472.759 976.733 477.241 973.802 479.641L855.302 575.641C853.091 577.453 849.909 577.453 847.698 575.641L729.198 479.641C726.267 477.241 726.267 472.759 729.198 470.359L847.698 374.359Z" fill="#66D575"/>
<g id="Text_6">
<text fill="black" fill-opacity="0.8" xml:space="preserve" style="white-space: pre" font-family="Inter" font-size="15" font-weight="500" letter-spacing="-0.011em"><tspan x="820.153" y="445.955">possible </tspan><tspan x="807.83" y="468.955">unexpected </tspan><tspan x="793.781" y="491.955">results* in </tspan><tspan x="883.394" y="514.955">?</tspan></text>
<text fill="black" fill-opacity="0.8" xml:space="preserve" style="white-space: pre" font-family="Inter" font-size="15" font-weight="bold" letter-spacing="-0.011em"><tspan x="868.72" y="491.955">urine </tspan><tspan x="811.725" y="514.955">screening</tspan></text>
</g>
</a>
</g>
<g id="Yes_3">
<path id="Shape_7" d="M634 473C632.895 473 632 473.895 632 475C632 476.105 632.895 477 634 477V473ZM654.75 477C655.855 477 656.75 476.105 656.75 475C656.75 473.895 655.855 473 654.75 473V477ZM699.75 473C698.645 473 697.75 473.895 697.75 475C697.75 476.105 698.645 477 699.75 477V473ZM721.914 476.414C722.695 475.633 722.695 474.367 721.914 473.586L709.186 460.858C708.405 460.077 707.139 460.077 706.358 460.858C705.577 461.639 705.577 462.905 706.358 463.686L717.672 475L706.358 486.314C705.577 487.095 705.577 488.361 706.358 489.142C707.139 489.923 708.405 489.923 709.186 489.142L721.914 476.414ZM634 477H654.75V473H634V477ZM699.75 477H720.5V473H699.75V477Z" fill="#B3B3B3"/>
<g id="Text Background_3">
<text id="Text_7" fill="black" fill-opacity="0.8" xml:space="preserve" style="white-space: pre" font-family="Inter" font-size="16" font-weight="500" letter-spacing="-0.011em"><tspan x="663.684" y="480.818">Yes</tspan></text>
</g>
</g>
<g id="No Alert">
<rect id="Shape_8" x="104" y="693" width="129" height="53" rx="21.2" fill="#3DADFF"/>
<text id="Text_8" fill="white" xml:space="preserve" style="white-space: pre" font-family="Inter" font-size="16" font-weight="500" letter-spacing="-0.011em"><tspan x="137.608" y="725.818">No Alert</tspan></text>
</g>
<g id="No">
<path id="Shape_9" d="M170.5 557C170.5 555.895 169.605 555 168.5 555C167.395 555 166.5 555.895 166.5 557H170.5ZM166.5 601.25C166.5 602.355 167.395 603.25 168.5 603.25C169.605 603.25 170.5 602.355 170.5 601.25H166.5ZM170.5 642.25C170.5 641.145 169.605 640.25 168.5 640.25C167.395 640.25 166.5 641.145 166.5 642.25H170.5ZM167.086 687.914C167.867 688.695 169.133 688.695 169.914 687.914L182.642 675.186C183.423 674.405 183.423 673.139 182.642 672.358C181.861 671.577 180.595 671.577 179.814 672.358L168.5 683.672L157.186 672.358C156.405 671.577 155.139 671.577 154.358 672.358C153.577 673.139 153.577 674.405 154.358 675.186L167.086 687.914ZM166.5 557V601.25H170.5V557H166.5ZM166.5 642.25V686.5H170.5V642.25H166.5Z" fill="#B3B3B3"/>
<g id="Text Background_4">
<text id="Text_9" fill="black" fill-opacity="0.8" xml:space="preserve" style="white-space: pre" font-family="Inter" font-size="16" font-weight="500" letter-spacing="-0.011em"><tspan x="157.791" y="627.568">No</tspan></text>
</g>
</g>
<g id="Alert">
<a href="recommendation-10.html#sub-flow-3-drug-urine-screening-within-last-12-months" target="_top">
<path id="Shape_10" d="M559.597 680H424C420.686 680 418 682.686 418 686V741.117C418 742.939 418.818 744.655 420.303 745.71C426.114 749.836 442.044 760 457.974 760C478.958 760 501.023 729 522.548 729C537.809 729 553.013 737.001 560.61 741.687C563.43 743.427 565.597 742.314 565.597 739V686C565.597 682.686 562.911 680 559.597 680Z" fill="#FF9E42"/>
<text id="Text_10" fill="black" fill-opacity="0.8" xml:space="preserve" style="white-space: pre" font-family="Inter" font-size="16" font-weight="500" letter-spacing="-0.011em"><tspan x="473.557" y="719.818">Alert</tspan></text>
</a>
</g>
<g id="No_2">
<path id="Shape_11" d="M493.798 583C493.798 581.895 492.903 581 491.798 581C490.694 581 489.798 581.895 489.798 583H493.798ZM489.798 607.75C489.798 608.855 490.694 609.75 491.798 609.75C492.903 609.75 493.798 608.855 493.798 607.75H489.798ZM493.798 648.75C493.798 647.645 492.903 646.75 491.798 646.75C490.694 646.75 489.798 647.645 489.798 648.75H493.798ZM490.384 674.914C491.165 675.695 492.432 675.695 493.213 674.914L505.941 662.186C506.722 661.405 506.722 660.139 505.941 659.358C505.16 658.577 503.893 658.577 503.112 659.358L491.798 670.672L480.485 659.358C479.704 658.577 478.437 658.577 477.656 659.358C476.875 660.139 476.875 661.405 477.656 662.186L490.384 674.914ZM489.798 583V607.75H493.798V583H489.798ZM489.798 648.75V673.5H493.798V648.75H489.798Z" fill="#B3B3B3"/>
<g id="Text Background_5">
<text id="Text_11" fill="black" fill-opacity="0.8" xml:space="preserve" style="white-space: pre" font-family="Inter" font-size="16" font-weight="500" letter-spacing="-0.011em"><tspan x="481.09" y="634.068">No</tspan></text>
</g>
</g>
<g id="Alert_2">
<path id="Shape_12" d="M919.597 680H784C780.686 680 778 682.686 778 686V741.117C778 742.939 778.818 744.655 780.303 745.71C786.114 749.836 802.044 760 817.974 760C838.958 760 861.023 729 882.548 729C897.809 729 913.013 737.001 920.61 741.687C923.43 743.427 925.597 742.314 925.597 739V686C925.597 682.686 922.911 680 919.597 680Z" fill="#FF9E42"/>
<text id="Text_12" fill="black" fill-opacity="0.8" xml:space="preserve" style="white-space: pre" font-family="Inter" font-size="16" font-weight="500" letter-spacing="-0.011em"><tspan x="833.557" y="719.818">Alert</tspan></text>
</g>
<g id="Yes_4">
<path id="Shape_13" d="M853.798 583C853.798 581.895 852.903 581 851.798 581C850.694 581 849.798 581.895 849.798 583H853.798ZM849.798 607.75C849.798 608.855 850.694 609.75 851.798 609.75C852.903 609.75 853.798 608.855 853.798 607.75H849.798ZM853.798 648.75C853.798 647.645 852.903 646.75 851.798 646.75C850.694 646.75 849.798 647.645 849.798 648.75H853.798ZM850.384 674.914C851.165 675.695 852.432 675.695 853.213 674.914L865.941 662.186C866.722 661.405 866.722 660.139 865.941 659.358C865.16 658.577 863.893 658.577 863.112 659.358L851.798 670.672L840.485 659.358C839.704 658.577 838.437 658.577 837.656 659.358C836.875 660.139 836.875 661.405 837.656 662.186L850.384 674.914ZM849.798 583V607.75H853.798V583H849.798ZM849.798 648.75V673.5H853.798V648.75H849.798Z" fill="#B3B3B3"/>
<g id="Text Background_6">
<text id="Text_13" fill="black" fill-opacity="0.8" xml:space="preserve" style="white-space: pre" font-family="Inter" font-size="16" font-weight="500" letter-spacing="-0.011em"><tspan x="838.232" y="634.068">Yes</tspan></text>
</g>
</g>
<g id="Order Sign">
<rect id="Shape_14" x="427" y="56" width="129" height="53" rx="21.2" fill="#F24822"/>
<text id="Text_14" fill="white" xml:space="preserve" style="white-space: pre" font-family="Inter" font-size="16" font-weight="500" letter-spacing="-0.011em"><tspan x="451.479" y="88.8182">Order Sign</tspan></text>
</g>
<g id="No Alert_2">
<rect id="Shape_15" x="787" y="225" width="129" height="53" rx="21.2" fill="#3DADFF"/>
<text id="Text_15" fill="white" xml:space="preserve" style="white-space: pre" font-family="Inter" font-size="16" font-weight="500" letter-spacing="-0.011em"><tspan x="820.608" y="257.818">No Alert</tspan></text>
</g>
<g id="No_3">
<path id="Shape_16" d="M622 249.5C620.895 249.5 620 250.395 620 251.5C620 252.605 620.895 253.5 622 253.5V249.5ZM681.75 253.5C682.855 253.5 683.75 252.605 683.75 251.5C683.75 250.395 682.855 249.5 681.75 249.5V253.5ZM720.75 249.5C719.645 249.5 718.75 250.395 718.75 251.5C718.75 252.605 719.645 253.5 720.75 253.5V249.5ZM781.914 252.914C782.695 252.133 782.695 250.867 781.914 250.086L769.186 237.358C768.405 236.577 767.139 236.577 766.358 237.358C765.577 238.139 765.577 239.405 766.358 240.186L777.672 251.5L766.358 262.814C765.577 263.595 765.577 264.861 766.358 265.642C767.139 266.423 768.405 266.423 769.186 265.642L781.914 252.914ZM622 253.5H681.75V249.5H622V253.5ZM720.75 253.5H780.5V249.5H720.75V253.5Z" fill="#B3B3B3"/>
<g id="Text Background_7">
<text id="Text_16" fill="black" fill-opacity="0.8" xml:space="preserve" style="white-space: pre" font-family="Inter" font-size="16" font-weight="500" letter-spacing="-0.011em"><tspan x="690.541" y="257.318">No</tspan></text>
</g>
</g>
<g id="Connector line">
<path id="Shape_17" d="M493.5 115C493.5 113.895 492.605 113 491.5 113C490.395 113 489.5 113.895 489.5 115H493.5ZM490.086 169.914C490.867 170.695 492.133 170.695 492.914 169.914L505.642 157.186C506.423 156.405 506.423 155.139 505.642 154.358C504.861 153.577 503.595 153.577 502.814 154.358L491.5 165.672L480.186 154.358C479.405 153.577 478.139 153.577 477.358 154.358C476.577 155.139 476.577 156.405 477.358 157.186L490.086 169.914ZM489.5 115V168.5H493.5V115H489.5Z" fill="#B3B3B3"/>
</g>
<g id="1">
<circle id="Shape_18" cx="430" cy="199" r="24" fill="#874FFF"/>
<text id="Text_17" fill="white" xml:space="preserve" style="white-space: pre" font-family="Inter" font-size="15" font-weight="bold" letter-spacing="-0.011em"><tspan x="426.331" y="204.455">1</tspan></text>
</g>
<g id="2">
<circle id="Shape_19" cx="112" cy="422" r="24" fill="#874FFF"/>
<text id="Text_18" fill="white" xml:space="preserve" style="white-space: pre" font-family="Inter" font-size="15" font-weight="bold" letter-spacing="-0.011em"><tspan x="107.276" y="427.455">2</tspan></text>
</g>
<g id="3">
<circle id="Shape_20" cx="417" cy="688" r="24" fill="#874FFF"/>
<text id="Text_19" fill="white" xml:space="preserve" style="white-space: pre" font-family="Inter" font-size="15" font-weight="bold" letter-spacing="-0.011em"><tspan x="412.056" y="693.455">3</tspan></text>
</g>
<g id="4">
<circle id="Shape_21" cx="784" cy="416" r="24" fill="#874FFF"/>
<text id="Text_20" fill="white" xml:space="preserve" style="white-space: pre" font-family="Inter" font-size="15" font-weight="bold" letter-spacing="-0.011em"><tspan x="778.917" y="421.455">4</tspan></text>
</g>
</g>
<g id="Rectangle">
<rect x="40" y="4" width="254.062" height="30" rx="3" fill="white"/>
<rect x="40.5" y="4.5" width="253.062" height="29" rx="2.5" stroke="black" stroke-opacity="0.2"/>
</g>
<text id="Recommendation 10: High-Level Flow Diagram_2" fill="black" xml:space="preserve" style="white-space: pre" font-family="Inter" font-size="11" letter-spacing="0em"><tspan x="46" y="21.5">Recommendation 10: High-Level Flow Diagram</tspan></text>
</svg>
